# xmcd
#
# Track frame offsets: 
#        182
#        17442
#        52322
#        73800
#        92940
#        113120
#        149410
#        170947
#
# Disc length: 2694 seconds
#
# Revision: 1
# Processed by: cddbd v1.5.2PL0 Copyright (c) Steve Scherf et al.
# Submitted via: ExactAudioCopy v1.1
#
DISCID=7a0a8408
DTITLE=Doc Holliday - Song For The Outlaw
DYEAR=1989
DGENRE=Southern Rock
TTITLE0=Last Ride (Live)
TTITLE1=Southern Man - Doin' It Again (Medley) (Live)
TTITLE2=Home Town Sweetheart (Live)
TTITLE3=Song For The Outlaw (Live)
TTITLE4=Ain't No Fool (Live)
TTITLE5=Magic Midnight Lady - Moonshine Runner (Medley) (Live)
TTITLE6=Bad Love (Live)
TTITLE7=Lonesome Guitar (Live)
EXTD=YEAR:1989 Maze Music
EXTT0=
EXTT1=
EXTT2=
EXTT3=
EXTT4=
EXTT5=
EXTT6=
EXTT7=
PLAYORDER=
